<svg width="100" height="100" viewBox="0 0 100 100" fill="none" xmlns="http://www.w3.org/2000/svg">
<style>
     @media (prefers-color-scheme: dark) {
     .a { fill: #f0f0f0 }
     }
</style>
<rect class="a" width="100" height="100" fill="white"/>
<mask id="path-2-inside-1_772_2714" fill="white">
<path fill-rule="evenodd" clip-rule="evenodd" d="M43.6646 42.6967C46.0475 46.6412 53.0868 49.5 61.4 49.5C63.0575 49.5 64.6644 49.3864 66.1938 49.1731C66.198 49.2315 66.2 49.2889 66.2 49.3452C66.2 50.6152 65.1619 52.4086 62.0651 54.0319C60.4455 54.8809 58.4383 55.5745 56.1612 56.0291C53.6235 52.227 46.7193 49.5 38.6 49.5C36.9569 49.5 35.3636 49.6117 33.8461 49.8214C33.8148 49.656 33.8 49.4969 33.8 49.3452C33.8 48.0752 34.8381 46.2819 37.9349 44.6586C39.5131 43.8313 41.4592 43.1515 43.6646 42.6967ZM42.8341 40.3451C45.0395 39.8621 47.4603 39.5952 50 39.5952C59.8913 39.5952 67.9792 43.6425 68.5659 48.7501C67.7998 48.9179 67.0078 49.0596 66.1938 49.1731C66.1038 47.9164 65.0244 46.2098 62.0651 44.6586C59.1012 43.1049 54.8391 42.0714 50 42.0714C47.7375 42.0714 45.6011 42.2973 43.6646 42.6967C43.2122 41.9479 42.9277 41.16 42.8341 40.3451ZM31.4774 50.2404C31.4262 49.9456 31.4 49.647 31.4 49.3452C31.4 45.2917 36.1189 41.816 42.8341 40.3451C42.8115 40.1483 42.8 39.9498 42.8 39.75C42.8 34.3652 51.1275 30 61.4 30C71.6725 30 80 34.3652 80 39.75C80 43.8035 75.2811 47.2793 68.5659 48.7501C68.5885 48.947 68.6 49.1454 68.6 49.3452C68.6 53.4074 63.8608 56.8894 57.1226 58.3548C56.9824 57.5471 56.6542 56.7678 56.1612 56.0291C54.271 56.4064 52.1948 56.619 50 56.619C45.1609 56.619 40.8988 55.5856 37.9349 54.0319C35.2079 52.6024 34.0773 51.0411 33.8461 49.8214C33.0334 49.9336 32.2425 50.074 31.4774 50.2404ZM31.4774 50.2404C24.7392 51.7058 20 55.1878 20 59.25C20 64.6348 28.3275 69 38.6 69C48.8725 69 57.2 64.6348 57.2 59.25C57.2 58.9482 57.1738 58.6496 57.1226 58.3548C54.9288 58.8319 52.5231 59.0952 50 59.0952C40.3032 59.0952 32.3396 55.2056 31.4774 50.2404Z"/>
</mask>
<path fill-rule="evenodd" clip-rule="evenodd" d="M43.6646 42.6967C46.0475 46.6412 53.0868 49.5 61.4 49.5C63.0575 49.5 64.6644 49.3864 66.1938 49.1731C66.198 49.2315 66.2 49.2889 66.2 49.3452C66.2 50.6152 65.1619 52.4086 62.0651 54.0319C60.4455 54.8809 58.4383 55.5745 56.1612 56.0291C53.6235 52.227 46.7193 49.5 38.6 49.5C36.9569 49.5 35.3636 49.6117 33.8461 49.8214C33.8148 49.656 33.8 49.4969 33.8 49.3452C33.8 48.0752 34.8381 46.2819 37.9349 44.6586C39.5131 43.8313 41.4592 43.1515 43.6646 42.6967ZM42.8341 40.3451C45.0395 39.8621 47.4603 39.5952 50 39.5952C59.8913 39.5952 67.9792 43.6425 68.5659 48.7501C67.7998 48.9179 67.0078 49.0596 66.1938 49.1731C66.1038 47.9164 65.0244 46.2098 62.0651 44.6586C59.1012 43.1049 54.8391 42.0714 50 42.0714C47.7375 42.0714 45.6011 42.2973 43.6646 42.6967C43.2122 41.9479 42.9277 41.16 42.8341 40.3451ZM31.4774 50.2404C31.4262 49.9456 31.4 49.647 31.4 49.3452C31.4 45.2917 36.1189 41.816 42.8341 40.3451C42.8115 40.1483 42.8 39.9498 42.8 39.75C42.8 34.3652 51.1275 30 61.4 30C71.6725 30 80 34.3652 80 39.75C80 43.8035 75.2811 47.2793 68.5659 48.7501C68.5885 48.947 68.6 49.1454 68.6 49.3452C68.6 53.4074 63.8608 56.8894 57.1226 58.3548C56.9824 57.5471 56.6542 56.7678 56.1612 56.0291C54.271 56.4064 52.1948 56.619 50 56.619C45.1609 56.619 40.8988 55.5856 37.9349 54.0319C35.2079 52.6024 34.0773 51.0411 33.8461 49.8214C33.0334 49.9336 32.2425 50.074 31.4774 50.2404ZM31.4774 50.2404C24.7392 51.7058 20 55.1878 20 59.25C20 64.6348 28.3275 69 38.6 69C48.8725 69 57.2 64.6348 57.2 59.25C57.2 58.9482 57.1738 58.6496 57.1226 58.3548C54.9288 58.8319 52.5231 59.0952 50 59.0952C40.3032 59.0952 32.3396 55.2056 31.4774 50.2404Z" fill="#F1A24C"/>
<path d="M62.0651 54.0319L58.3509 46.9464L58.3509 46.9464L62.0651 54.0319ZM37.9349 44.6586L34.2207 37.573L34.2207 37.573L37.9349 44.6586ZM62.0651 44.6586L58.3509 51.7441L58.3509 51.7441L62.0651 44.6586ZM61.4 30L61.4 22H61.4V30ZM37.9349 54.0319L34.2207 61.1175L34.2207 61.1175L37.9349 54.0319ZM20 59.25L28 59.25V59.25H20ZM61.4 41.5C58.114 41.5 55.2767 40.9283 53.2152 40.1243C50.9751 39.2507 50.4345 38.4317 50.5121 38.5601L36.8171 46.8334C39.2775 50.9062 43.4481 53.4889 47.4017 55.0308C51.5339 56.6423 56.3729 57.5 61.4 57.5V41.5ZM65.089 41.2498C63.9315 41.4112 62.6938 41.5 61.4 41.5V57.5C63.4212 57.5 65.3973 57.3616 67.2985 57.0965L65.089 41.2498ZM74.2 49.3452C74.2 49.0952 74.1909 48.8472 74.1733 48.6017L58.2142 49.7445C58.205 49.6157 58.2 49.4825 58.2 49.3452H74.2ZM65.7793 61.1175C69.9295 58.942 74.2 55.0296 74.2 49.3452H58.2C58.2 47.7766 58.8267 46.8343 59.0417 46.565C59.2571 46.2952 59.192 46.5055 58.3509 46.9464L65.7793 61.1175ZM57.7273 63.8743C60.6202 63.2968 63.3732 62.3787 65.7793 61.1175L58.3509 46.9464C57.5178 47.3831 56.2565 47.8523 54.5951 48.1839L57.7273 63.8743ZM38.6 57.5C41.8065 57.5 44.5901 58.0445 46.6428 58.8212C48.8534 59.6575 49.5128 60.4787 49.5071 60.4703L62.8152 51.588C60.2719 47.7774 56.2104 45.3341 52.3046 43.8564C48.241 42.319 43.5128 41.5 38.6 41.5V57.5ZM34.9411 57.7461C36.0901 57.5873 37.3175 57.5 38.6 57.5V41.5C36.5964 41.5 34.6371 41.6361 32.7512 41.8966L34.9411 57.7461ZM25.8 49.3452C25.8 50.0179 25.8657 50.6757 25.986 51.3107L41.7063 48.332C41.7639 48.6363 41.8 48.9759 41.8 49.3452H25.8ZM34.2207 37.573C30.0705 39.7485 25.8 43.6609 25.8 49.3452H41.8C41.8 50.9139 41.1733 51.8561 40.9583 52.1255C40.7429 52.3953 40.808 52.185 41.6491 51.7441L34.2207 37.573ZM42.0487 34.8616C39.2404 35.4408 36.5664 36.3434 34.2207 37.573L41.6491 51.7441C42.4597 51.3192 43.6781 50.8623 45.2804 50.5318L42.0487 34.8616ZM50 31.5952C46.9081 31.5952 43.9125 31.9193 41.1224 32.5304L44.5458 48.1599C46.1666 47.8048 48.0125 47.5952 50 47.5952V31.5952ZM76.5137 47.8372C75.7589 41.2665 70.5887 37.2014 66.323 35.0885C61.6968 32.7971 55.9454 31.5952 50 31.5952V47.5952C53.9459 47.5952 57.1841 48.417 59.2214 49.4261C61.6191 50.6138 60.7862 51.1261 60.6182 49.663L76.5137 47.8372ZM66.8542 40.9354C66.2939 41.0581 65.7045 41.164 65.089 41.2498L67.2985 57.0965C68.3111 56.9553 69.3058 56.7777 70.2776 56.5648L66.8542 40.9354ZM74.1733 48.6018C73.7942 43.3068 69.794 39.6775 65.7793 37.573L58.3509 51.7441C59.1509 52.1634 59.2499 52.375 59.0712 52.1616C58.8938 51.9497 58.3145 51.1457 58.2142 49.7445L74.1733 48.6018ZM65.7793 37.573C61.4545 35.306 55.8662 34.0714 50 34.0714V50.0714C53.812 50.0714 56.7478 50.9038 58.3509 51.7441L65.7793 37.573ZM50 34.0714C47.2114 34.0714 44.5331 34.3493 42.0487 34.8616L45.2804 50.5318C46.6692 50.2454 48.2636 50.0714 50 50.0714V34.0714ZM50.5121 38.5601C50.5818 38.6756 50.7294 38.9757 50.7818 39.4322L34.8863 41.258C35.126 43.3444 35.8426 45.2203 36.8171 46.8334L50.5121 38.5601ZM23.4 49.3452C23.4 50.1114 23.4666 50.8679 23.5953 51.6092L39.3594 48.8717C39.3857 49.0234 39.4 49.1827 39.4 49.3452H23.4ZM41.1224 32.5304C36.9589 33.4423 32.912 35.0712 29.7087 37.5453C26.5482 39.9863 23.4 43.9615 23.4 49.3452H39.4C39.4 50.6755 38.6113 50.886 39.489 50.2081C40.3239 49.5632 41.9941 48.7188 44.5458 48.1599L41.1224 32.5304ZM50.7818 39.4322C50.7938 39.5368 50.8 39.6431 50.8 39.75H34.8C34.8 40.2566 34.8291 40.7598 34.8863 41.258L50.7818 39.4322ZM50.8 39.75C50.8 41.5223 49.5798 41.19 51.962 39.9412C53.9668 38.8904 57.2904 38 61.4 38V22C55.2371 22 49.2607 23.2923 44.5336 25.7702C40.184 28.0502 34.8 32.5929 34.8 39.75H50.8ZM61.4 38C65.5096 38 68.8332 38.8904 70.838 39.9412C73.2202 41.19 72 41.5223 72 39.75H88C88 32.5929 82.616 28.0502 78.2664 25.7702C73.5393 23.2923 67.5629 22 61.4 22L61.4 38ZM72 39.75C72 38.4198 72.7887 38.2092 71.911 38.8871C71.0761 39.532 69.4059 40.3765 66.8542 40.9354L70.2776 56.5648C74.4411 55.6529 78.488 54.024 81.6913 51.55C84.8518 49.1089 88 45.1337 88 39.75H72ZM76.6 49.3452C76.6 48.8388 76.5709 48.3355 76.5137 47.8371L60.6182 49.6631C60.6062 49.5584 60.6 49.4521 60.6 49.3452H76.6ZM58.8227 66.1721C62.9987 65.2639 67.0574 63.6363 70.2701 61.1615C73.4387 58.7208 76.6 54.7408 76.6 49.3452H60.6C60.6 48.0119 61.3918 47.804 60.5062 48.4861C59.6648 49.1342 57.9848 49.9803 55.4226 50.5375L58.8227 66.1721ZM65.0047 56.986C64.6494 54.94 63.8432 53.1282 62.8152 51.588L49.5071 60.4703C49.4651 60.4074 49.3154 60.1542 49.2406 59.7236L65.0047 56.986ZM54.5951 48.1839C53.2352 48.4554 51.6841 48.619 50 48.619V64.619C52.7056 64.619 55.3068 64.3575 57.7273 63.8743L54.5951 48.1839ZM50 48.619C46.188 48.619 43.2522 47.7867 41.6491 46.9464L34.2207 61.1175C38.5455 63.3845 44.1338 64.619 50 64.619V48.619ZM41.6491 46.9464C40.9173 46.5628 40.7702 46.3517 40.8883 46.4823C41.0041 46.6104 41.4934 47.2083 41.7063 48.332L25.986 51.3107C26.8651 55.9504 30.4548 59.1434 34.2207 61.1175L41.6491 46.9464ZM32.7512 41.8966C31.7405 42.0363 30.7476 42.2122 29.7773 42.4232L33.1774 58.0577C33.7375 57.9359 34.3264 57.831 34.9411 57.7461L32.7512 41.8966ZM29.7773 42.4232C25.6013 43.3313 21.5426 44.959 18.3299 47.4337C15.1613 49.8744 12 53.8545 12 59.25H28C28 60.5833 27.2082 60.7913 28.0938 60.1091C28.9352 59.461 30.6152 58.6149 33.1774 58.0577L29.7773 42.4232ZM12 59.25C12 66.4071 17.384 70.9498 21.7336 73.2298C26.4607 75.7077 32.4371 77 38.6 77V61C34.4904 61 31.1668 60.1096 29.162 59.0588C26.7798 57.81 28 57.4777 28 59.25L12 59.25ZM38.6 77C44.7629 77 50.7393 75.7077 55.4664 73.2298C59.816 70.9498 65.2 66.4071 65.2 59.25H49.2C49.2 57.4777 50.4202 57.81 48.038 59.0588C46.0332 60.1096 42.7096 61 38.6 61V77ZM65.2 59.25C65.2 58.4838 65.1334 57.7274 65.0047 56.9861L49.2406 59.7235C49.2143 59.5718 49.2 59.4126 49.2 59.25H65.2ZM50 67.0952C53.0718 67.0952 56.0484 66.7754 58.8227 66.1721L55.4226 50.5375C53.8092 50.8884 51.9744 51.0952 50 51.0952V67.0952ZM23.5953 51.6092C24.6813 57.8628 29.7288 61.7042 33.957 63.7387C38.5289 65.9385 44.1663 67.0952 50 67.0952V51.0952C46.1369 51.0952 42.9442 50.3072 40.8944 49.3209C38.5011 48.1693 39.1357 47.5833 39.3594 48.8717L23.5953 51.6092Z" fill="#F1A24C" mask="url(#path-2-inside-1_772_2714)"/>
</svg>
